<?xml version="1.0" encoding="utf-8"?>
<!-- Generator: Adobe Illustrator 30.1.0, SVG Export Plug-In . SVG Version: 9.03 Build 0)  -->
<svg version="1.0" id="Layer_1" xmlns="http://www.w3.org/2000/svg" xmlns:xlink="http://www.w3.org/1999/xlink" x="0px" y="0px"
	 viewBox="0 0 1280 640" style="enable-background:new 0 0 1280 640;" xml:space="preserve">
<style type="text/css">
	.st0{fill:#FF9100;stroke:#000000;stroke-miterlimit:10;}
</style>
<g transform="translate(0.000000,640.000000) scale(0.100000,-0.100000)">
	<path d="M6029.06,4426.85c0-45.3-2.61-54.02-17.42-57.5c-9.58-2.61-17.43-12.2-17.43-20.91c0-15.68-12.2-16.55-318.01-16.55h-318
		v21.78v21.78h-128.07c-121.98,0-130.69-0.87-163.8-21.78l-34.85-20.91l-456.54-0.87h-455.67l-27.88-29.62
		c-14.81-15.68-32.24-35.72-38.34-43.56c-14.81-18.3-30.49-18.3-24.4,1.74c3.49,10.45-6.97,22.65-39.21,44.43
		c-23.52,16.55-59.25,48.79-79.28,72.31c-30.49,36.59-39.21,42.69-62.73,40.08c-39.21-3.48-40.95-28.75-2.61-47.05
		c22.65-10.46,33.11-22.65,40.08-47.92c6.1-19.17,20.91-41.82,35.72-53.15c36.59-26.14,33.11-44.43-10.46-64.47
		c-59.25-26.14-132.43-85.38-158.57-126.33l-24.4-38.34l-441.72-160.31c-391.19-142.01-447.82-161.18-506.2-164.67
		c-88.87-5.23-127.2,7.84-208.23,67.96c-38.34,28.75-80.16,54.89-94.1,57.5c-13.07,2.61-571.54-67.96-1239.79-157.7
		C-20.91,3514.65,0,3518.14,0,3480.67c0-6.1,11.33-39.21,25.27-74.06C88,3246.3,132.43,3077.28,148.99,2932.65
		c11.33-108.04-0.87-251.79-36.59-422.56c-48.79-230.01-48.79-234.37-29.62-248.31c8.71-6.97,24.4-9.58,33.98-6.97
		c19.17,6.1,671.74,229.14,1155.28,395.55c150.73,52.28,345.02,118.49,431.27,148.11s280.54,95.84,431.27,148.11
		s470.48,162.05,710.07,243.95s561.09,192.55,714.43,245.69c153.34,52.28,297.1,101.94,318.88,108.91
		c37.46,13.07,41.82,13.07,73.19-2.61c27.88-13.07,40.95-29.62,71.44-86.25c20.04-38.33,47.92-78.41,60.99-89.74
		c111.52-90.61,405.13-33.11,465.25,90.61c11.33,23.52,20.04,62.73,22.65,97.58c1.74,32.24,5.23,67.09,7.84,77.54
		c7.84,40.95,29.62,45.31,304.94,64.47c221.3,14.81,264.86,20.04,289.26,34.85c15.68,8.71,44.43,16.55,64.47,16.55
		c27.01,0,35.72,3.49,39.21,17.43c4.36,16.55,12.2,17.43,281.41,17.43h277.06l5.23-29.62c3.48-16.55,13.94-40.08,23.52-52.28
		c20.91-27.01,59.25-29.62,126.33-9.58c52.27,14.81,41.82,14.81,386.84,7.84c243.08-5.23,305.81-3.49,444.34,10.46
		c173.38,17.43,269.22,20.04,353.73,8.71c43.56-6.1,56.63-5.23,75.8,7.84c28.75,19.17,58.37,79.28,58.37,120.23v32.24h1272.03
		c1124.79,0,1272.03-1.74,1272.03-13.07c0-10.46,15.68-13.07,87.12-13.07s87.12,2.61,87.12,13.07c0,11.33,66.21,13.07,540.18,13.07
		h540.18v87.13v87.13h21.78h21.78v139.4v139.4h-149.86h-150.73l2.61,47.92l3.48,47.92h-40.08h-40.08v-47.92v-47.92H8851.92
		c-1705.91,0-1925.47,1.74-1925.47,13.07s-38.34,13.07-294.48,13.07h-295.35l-20.04,21.78c-16.55,17.42-28.75,21.78-61.86,21.78
		c-22.65,0-50.53-3.48-61.86-7.84s-40.95-10.46-65.34-13.94l-46.18-6.1v53.15V4480h-26.14h-26.14V4426.85z M4463.42,3654.92
		c35.72-18.3,58.37-60.99,58.37-109.78c0-71.44-30.49-111.52-116.75-150.73c-73.19-33.11-201.26-40.08-260.5-13.94
		c-54.02,24.4-75.8,60.12-75.8,126.33c0,44.43,3.49,54.02,25.27,76.67c13.94,13.94,34.85,25.27,46.18,25.27
		c18.3,0,20.04-3.49,20.91-50.53c0-67.09,21.78-109.78,70.57-138.53c43.56-25.27,60.99-20.91,25.27,6.97
		c-72.31,56.63-63.6,159.44,17.43,209.1c19.17,10.46,35.72,22.65,38.33,26.14C4325.76,3680.19,4421.6,3675.83,4463.42,3654.92z"/>
</g>
<polygon class="st0" points="1115.2,206.81 1252.7,182.74 1159.94,214.96 1262.14,208.29 1156.05,233.29 1262.14,239.4 
	1156.6,249.4 1249.36,292.17 1115.2,234.69 "/>
</svg>
