<?xml version="1.0" encoding="UTF-8"?>
<svg id="Layer_1" data-name="Layer 1" xmlns="http://www.w3.org/2000/svg" viewBox="0 0 32 31.38">
  <defs>
    <style>
      .cls-1 {
        isolation: isolate;
      }

      .cls-1, .cls-2 {
        opacity: .5;
      }

      .cls-3 {
        fill: #89664c;
      }

      .cls-4 {
        fill: #d3976e;
      }

      .cls-5 {
        fill: #3e4347;
      }

      .cls-6 {
        fill: #ef4e16;
      }

      .cls-7 {
        fill: #fff;
      }

      .cls-8 {
        fill: #594640;
      }

      .cls-9 {
        fill: #ffce31;
      }
    </style>
  </defs>
  <g>
    <polygon class="cls-6" points="21.76 16.92 30.5 12.07 20.69 12.49 23.6 6.47 18.29 10.26 18.94 1.95 15.08 8.8 9.26 .87 11.76 10.74 3.03 7.85 9.98 14.2 1.5 15.85 9.63 17.71 5.07 25.85 12.54 21.34 12.85 29.87 15.9 22.08 20.02 28.24 19.79 20.84 26.87 23.54 21.76 16.92"/>
    <polygon class="cls-9" points="19.22 16.18 24.34 13.8 18.66 13.64 20.18 10.26 17.17 11.98 17.28 7.39 15.26 11.22 12.22 7.31 13.55 12.24 8.48 10.95 12.62 14.53 7.48 15.74 12.19 16.82 8.87 21.91 13.96 18.47 14.1 22.95 15.93 18.85 17.99 21.91 17.96 18.2 21.68 19.84 19.22 16.18"/>
    <polygon class="cls-7" points="17.31 15.57 19.48 14.57 17.07 14.5 17.72 13.07 16.44 13.8 16.49 11.85 15.63 13.47 14.35 11.82 14.91 13.91 12.76 13.36 14.52 14.87 12.34 15.39 14.33 15.85 12.93 18 15.08 16.54 15.14 18.44 15.92 16.71 16.79 18 16.77 16.43 18.35 17.12 17.31 15.57"/>
  </g>
  <g>
    <path class="cls-8" d="M12.49,11.2c-.23-.56-.39-1.04-.5-1.48,3.53-1.87,2.4-3.6,1.59-2.32-.57.9-1.4,1.33-1.76,1.48-.15-1.16.1-1.9.22-2.76.2-1.36-1.08-2.02-1.27-1.49-.29.81.87.33.51,2.21-.28,1.48-.04,2.72.2,3.48-.52-.42-1.09-.83-1.71-1.25-.4-.79-.94-2.43.25-4.23.36-.55-.12-.59-.26-.55-.61.17-1.47,2.28-.98,4.12-2.41-1.75-1.56-4.12-2.15-4.12-.72,0-.35,2.67.7,4.02.33.42,1.01.9,1.76,1.41-.63.26-1.76.5-2.92-.51-.14-.12-.63-.37-.63.25s2.05,2.28,4.35.81c.98.67,1.94,1.4,2.37,2.17l2.03,1.83c-.23-1.14-.89-2.13-1.83-3.06Z"/>
    <path class="cls-8" d="M19.51,11.2c.23-.56.39-1.04.5-1.48-3.53-1.87-2.4-3.6-1.59-2.32.57.9,1.4,1.33,1.75,1.48.15-1.16-.1-1.9-.22-2.76-.2-1.36,1.08-2.02,1.27-1.49.29.81-.87.33-.51,2.21.28,1.48.04,2.72-.2,3.48.52-.42,1.09-.83,1.71-1.25.4-.79.94-2.43-.25-4.23-.36-.55.12-.59.26-.55.61.17,1.47,2.28.98,4.12,2.41-1.75,1.56-4.12,2.15-4.12.72,0,.35,2.67-.7,4.02-.33.42-1.01.9-1.76,1.41.63.26,1.76.5,2.92-.51.14-.12.62-.37.62.25s-2.05,2.28-4.35.81c-.98.67-1.94,1.4-2.37,2.17l-2.03,1.83c.23-1.14.89-2.13,1.83-3.06Z"/>
    <path class="cls-4" d="M19.74,17.29c-.88-1.56.16-2.55-.49-2.98-1.12-.75-2.23-.8-3.24-.8s-2.12.05-3.24.8c-.65.43.39,1.42-.49,2.98-.88,1.56-.08,2.92.98,3.85,1.05.92.08,2.92,1.54,3.68.34.17.75.34,1.22.34s.88-.17,1.22-.34c1.46-.76.49-2.76,1.54-3.68,1.05-.92,1.86-2.29.98-3.85Z"/>
    <g class="cls-2">
      <path class="cls-3" d="M19.37,16.06c.02.36.11.77.37,1.22.88,1.56.08,2.92-.98,3.85-.44.38-.52.95-.58,1.54h0c0-.82.06-2.34.65-3.86.52-1.33.54-1.99.54-2.75Z"/>
    </g>
    <g class="cls-2">
      <path class="cls-3" d="M12.63,16.06c-.02.36-.11.77-.37,1.22-.88,1.56-.08,2.92.98,3.85.44.38.53.95.58,1.54h0c0-.82-.06-2.34-.65-3.86-.52-1.33-.54-1.99-.54-2.75Z"/>
    </g>
    <path class="cls-4" d="M14.42,16.01s0-5.32-5.06-5.32c0,0,.03,5.32,5.06,5.32Z"/>
    <path class="cls-3" d="M10.23,11.43s1.93,0,3.35,2.63c0,0-1.13-.61-.98-.33.16.28,1,.9.16.58-.84-.33-.26.23,0,.51.26.28-2.53-.47-2.53-3.38Z"/>
    <path class="cls-4" d="M17.58,16.01s0-5.32,5.06-5.32c0,0-.03,5.32-5.06,5.32Z"/>
    <path class="cls-3" d="M21.77,11.43s-1.93,0-3.35,2.63c0,0,1.13-.61.98-.33-.16.28-1,.9-.16.58.84-.33.26.23,0,.51-.26.28,2.53-.47,2.53-3.38Z"/>
    <path class="cls-3" d="M17.3,24.2c.05.09-.51.64-1.3.63-.8,0-1.35-.54-1.3-.63.04-.11.6.22,1.3.22.7,0,1.26-.32,1.3-.22Z"/>
    <rect class="cls-3" x="15.84" y="23.85" width=".33" height=".65"/>
    <path class="cls-8" d="M16,22.32c-.69,0-1.58.11-1.58.5s.63,1.25,1.58,1.25,1.58-.86,1.58-1.25-.9-.5-1.58-.5Z"/>
    <ellipse class="cls-7" cx="16" cy="22.87" rx="1.14" ry=".33"/>
    <ellipse class="cls-5" cx="13.07" cy="18.3" rx=".59" ry=".85" transform="translate(-2.98 2.55) rotate(-10)"/>
    <ellipse class="cls-5" cx="18.94" cy="18.3" rx=".85" ry=".59" transform="translate(-2.38 33.77) rotate(-80)"/>
    <path class="cls-3" d="M13.09,16.47c-.04.06.64.52.89,1.38.27.85-.03,1.61.04,1.64.06.06.53-.75.23-1.72-.29-.98-1.13-1.38-1.15-1.3Z"/>
    <path class="cls-3" d="M18.91,16.47c.04.06-.64.52-.89,1.38-.27.85.03,1.61-.04,1.64-.06.06-.53-.75-.23-1.72.29-.98,1.13-1.38,1.15-1.3Z"/>
    <g class="cls-1">
      <path class="cls-3" d="M14.71,13.58c-.63.62-1.01,1.27-.22,2.88.9,1.81.58,5.1,1.51,5.1s.61-3.29,1.51-5.1c.8-1.61.41-2.26-.21-2.88-.44-.06-.88-.07-1.29-.07-.42,0-.85.01-1.29.07Z"/>
    </g>
  </g>
</svg>